<svg width="481" height="261" viewBox="0 0 481 261" fill="none" xmlns="http://www.w3.org/2000/svg">
<path d="M106.732 260.329H0.464264V0.5H106.09C120.593 0.5 127.844 7.87969 127.844 22.6391V91.6873C127.844 98.297 127.01 103.11 125.277 106.318C123.609 109.527 120.336 112.8 115.587 116.201L104.037 124.35L116.293 132.885C121.042 136.543 124.315 140.008 126.176 143.409C127.973 146.81 128.871 151.687 128.871 158.04V238.254C128.871 253.014 121.491 260.329 106.732 260.329ZM89.3414 30.468H41.0847V109.719H75.6088L89.3414 98.8745V30.468ZM95.566 150.147L81.4484 139.623H41.1488V230.426H95.566V150.147Z" fill="white"/>
<path d="M458.134 260.329H378.433C363.93 260.329 356.679 252.885 356.679 237.998V173.955H389.342V230.426H446.968V176.778L363.096 99.6446C360.401 96.2435 358.604 93.2274 357.834 90.6606C357.064 88.0296 356.615 84.3718 356.615 79.6231V22.5749C356.615 7.87969 363.866 0.5 378.369 0.5H458.134C472.893 0.5 480.273 7.94386 480.273 22.8316V83.0884H446.968V30.4038H389.342V80.6499L473.47 157.72C476.23 161.313 478.027 164.393 478.925 166.896C479.823 169.399 480.273 172.992 480.273 177.741V238.254C480.273 253.014 472.893 260.329 458.134 260.329Z" fill="white"/>
<path d="M235.331 1.33417H274.347L210.497 182.233H260.165V104.201H292.122V182.233H313.427V214.19H292.122V260.329H260.165V214.19H171.48V184.03L235.331 1.33417Z" fill="white"/>
</svg>
