<svg width="612" height="200" viewBox="0 0 612 200" fill="none" xmlns="http://www.w3.org/2000/svg">
<path d="M34.4 108.3C26 104.3 19.6 98.6 15.1 91.3C10.6 84 8.29999 75.5 8.29999 66C8.29999 53.4 11.2 42.1 17 32.1C22.8 22.1 30.9 14.2 41.4 8.5C51.9 2.8 63.8 0 77.2 0C87.4 0 96.4 1.79999 104.2 5.39999C112 8.99999 117.9 14.1 121.8 20.7L99.3 38.6C94 30 85.9 25.7 75.1 25.7C68.1 25.7 61.9 27.3 56.6 30.6C51.3 33.9 47.1 38.4 44.1 44.3C41.1 50.1 39.6 56.6 39.6 63.8C39.6 71.2 42 77.2 46.8 81.7C51.6 86.2 58.2 88.5 66.4 88.5C76.9 88.5 85.8 84.3 93.2 75.8L111.6 93.9C105.6 101.1 98.7 106.3 90.7 109.5C82.7 112.7 73.6 114.3 63.4 114.3C52.5 114.4 42.7 112.4 34.4 108.3Z" fill="white"/>
<path d="M167.2 26.3L163.6 44.8H212.4L207.8 68H158.8L154.9 88.1H212.5L207.5 112.1H119.4L141.4 2.19998H227.4L222.5 26.2H167.2V26.3Z" fill="white"/>
<path d="M229.7 56H275.4L270.8 78.9H225.1L229.7 56Z" fill="white"/>
<path d="M317.1 26.9H283.3L288.3 2.29999H386.7L381.7 26.9H348.1L331 112.2H299.9L317.1 26.9Z" fill="white"/>
<path d="M424.2 26.3L420.6 44.8H469.4L464.8 68H415.8L411.9 88.1H469.5L464.5 112.1H376.4L398.4 2.19998H484.4L479.5 26.2H424.2V26.3Z" fill="white"/>
<path d="M555.3 52.8L592.2 112.1H557.5L532.2 72.5L517.9 85.5L512.6 112.2H482L503.9 2.29999H534.5L525.6 47.2L575.2 2.29999H611.8L555.3 52.8Z" fill="white"/>
<path d="M9.09999 198.1C5.39999 197.1 2.3 195.8 0 194.2L5.59999 183.5C8.09999 185.1 10.9 186.4 13.7 187.2C16.5 188 19.5 188.5 22.3 188.5C25 188.5 27.2 188.1 28.7 187.3C30.2 186.5 31 185.4 31 184C31 182.8 30.3 181.9 28.9 181.2C27.5 180.5 25.4 179.8 22.5 179C19.2 178.1 16.5 177.3 14.4 176.4C12.2 175.5 10.4 174.2 8.79999 172.3C7.19999 170.5 6.5 168.1 6.5 165.1C6.5 161.5 7.5 158.3 9.5 155.6C11.5 152.9 14.3 150.8 17.9 149.3C21.5 147.8 25.8 147.1 30.7 147.1C34.3 147.1 37.7 147.5 40.8 148.2C43.9 148.9 46.6 150 48.9 151.4L43.7 162C41.7 160.8 39.6 159.8 37.2 159.2C34.8 158.6 32.4 158.2 29.9 158.2C27.1 158.2 24.8 158.7 23.2 159.6C21.6 160.5 20.8 161.7 20.8 163.1C20.8 164.3 21.5 165.3 22.9 166C24.3 166.7 26.5 167.4 29.4 168.2C32.7 169 35.4 169.9 37.5 170.7C39.6 171.6 41.5 172.9 43 174.7C44.5 176.5 45.3 178.8 45.3 181.7C45.3 185.3 44.3 188.4 42.3 191.1C40.3 193.8 37.5 195.9 33.8 197.4C30.1 198.9 25.9 199.6 21 199.6C16.8 199.6 12.9 199.1 9.09999 198.1Z" fill="white"/>
<path d="M95.3 152.4C98.9 155.2 100.6 159.2 100.6 164.4C100.6 168.6 99.6 172.3 97.5 175.5C95.4 178.7 92.6 181.1 88.8 182.8C85 184.5 80.7 185.4 75.7 185.4H65.6L63 198.6H48.7L58.8 148.2H80.1C86.7 148.2 91.8 149.6 95.3 152.4ZM83.7 171.9C85.4 170.4 86.3 168.3 86.3 165.6C86.3 163.5 85.6 162 84.2 161C82.8 160 80.9 159.5 78.3 159.5H70.8L67.8 174.3H76.3C79.6 174.2 82 173.4 83.7 171.9Z" fill="white"/>
<path d="M149.4 176.1C147 179.4 143.5 181.9 139.1 183.4L147.7 198.5H132.8L125.3 185.1H118.1L115.4 198.5H101.1L111.2 148.1H132.7C139.1 148.1 144.1 149.5 147.7 152.3C151.3 155.1 153 159.1 153 164.1C153.1 168.8 151.8 172.8 149.4 176.1ZM136.6 161C135.2 160 133.3 159.5 130.8 159.5H123.3L120.3 174.3H128.8C132 174.3 134.4 173.6 136.1 172.1C137.8 170.6 138.7 168.5 138.7 165.8C138.7 163.5 138 162 136.6 161Z" fill="white"/>
<path d="M190.7 188.8H169.2L163.4 198.6H148.4L180.7 148.2H194.7L206.9 198.6H192.7L190.7 188.8ZM188.6 178.3L185.2 162L175.6 178.3H188.6Z" fill="white"/>
<path d="M238.4 180.7L234.9 198.6H220.6L224.2 180.4L211.4 148.2H225.7L233.6 168.3L249.7 148.2H264.2L238.4 180.7Z" fill="white"/>
<path d="M336.7 148.2L326.6 198.6H314.9L298.3 171L292.8 198.6H278.8L288.9 148.2H300.6L317.3 175.8L322.8 148.2H336.7Z" fill="white"/>
<path d="M350.7 196.8C346.9 194.9 344 192.3 342 189C340 185.6 338.9 181.8 338.9 177.5C338.9 171.7 340.2 166.6 342.9 161.9C345.6 157.3 349.3 153.7 354.1 151.1C358.9 148.5 364.3 147.2 370.4 147.2C375.5 147.2 379.9 148.1 383.7 150C387.5 151.9 390.4 154.5 392.4 157.8C394.4 161.2 395.5 165 395.5 169.3C395.5 175.1 394.2 180.2 391.5 184.9C388.8 189.5 385.1 193.1 380.3 195.7C375.5 198.3 370.1 199.6 364 199.6C358.9 199.6 354.4 198.6 350.7 196.8ZM373.5 185.4C375.9 183.8 377.7 181.7 379 179C380.3 176.3 380.9 173.4 380.9 170.2C380.9 166.8 379.9 164.1 377.8 162C375.7 160 372.8 158.9 369.1 158.9C365.9 158.9 363.1 159.7 360.7 161.3C358.3 162.9 356.5 165 355.2 167.7C353.9 170.4 353.3 173.3 353.3 176.5C353.3 179.9 354.3 182.6 356.4 184.7C358.5 186.7 361.4 187.8 365.1 187.8C368.3 187.8 371.1 187 373.5 185.4Z" fill="white"/>
<path d="M447 157.1L416 187.3H442.1L439.8 198.6H394.7L396.5 189.7L427.5 159.5H403.2L405.4 148.2H448.8L447 157.1Z" fill="white"/>
<path d="M495.9 157.1L464.9 187.3H491L488.7 198.6H443.6L445.4 189.7L476.4 159.5H452.1L454.3 148.2H497.7L495.9 157.1Z" fill="white"/>
<path d="M505.1 148.2H519.4L511.6 187.3H535.6L533.3 198.6H495L505.1 148.2Z" fill="white"/>
<path d="M560.8 159.2L559.1 167.7H581.5L579.4 178.4H556.9L555.1 187.6H581.5L579.2 198.6H538.9L549 148.2H588.5L586.3 159.2H560.8V159.2Z" fill="white"/>
</svg>
